{
  "source": "C:\\Users\\Peter\\Desktop\\stuff\\MIUN\\quantitative_research\\video_compression\\videos\\BVI-HD\\BVI-HD_CDVL_videos\\ORIG\\CarpetCircleFast_1920x1080_60fps.mp4",
  "output": "C:\\Users\\Peter\\Desktop\\stuff\\MIUN\\quantitative_research\\video_compression\\compressed_videos\\BVI-HD\\av1\\2\\CarpetCircleFast_1920x1080_60fps_av1.mkv",
  "codec": "av1",
  "ok": "Input #0, mov,mp4,m4a,3gp,3g2,mj2, from 'C:\\Users\\Peter\\Desktop\\stuff\\MIUN\\quantitative_research\\video_compression\\videos\\BVI-HD\\BVI-HD_CDVL_videos\\ORIG\\CarpetCircleFast_1920x1080_60fps.mp4':\n  Metadata:\n    major_brand     : isom\n    minor_version   : 512\n    compatible_brands: isomiso2avc1mp41\n    encoder         : Lavf54.28.101\n  Duration: 00:00:05.00, start: 0.000000, bitrate: 324759 kb/s\n  Stream #0:0[0x1](und): Video: h264 (High 4:4:4 Predictive) (avc1 / 0x31637661), yuv420p(progressive), 1920x1080, 324754 kb/s, 60 fps, 60 tbr, 60 tbn (default)\n    Metadata:\n      handler_name    : VideoHandler\n      vendor_id       : [0][0][0][0]\n[out#0/matroska @ 000001a2ef92cd80] Codec AVOption b:a (set bitrate (in bits/s)) has not been used for any stream. The most likely reason is either wrong type (e.g. a video option with no video streams) or that it is a private option of some decoder which was not actually used for any stream.\nStream mapping:\n  Stream #0:0 -> #0:0 (h264 (native) -> av1 (libsvtav1))\nPress [q] to stop, [?] for help\nSvt[info]: -------------------------------------------\nSvt[info]: SVT [version]:\tSVT-AV1 Encoder Lib v3.1.0-19-g6ecfe8ec\nSvt[info]: SVT [build]  :\tGCC 15.2.0\t 64 bit\nSvt[info]: LIB Build date: Aug 17 2025 11:37:13\nSvt[info]: -------------------------------------------\nSvt[info]: Level of Parallelism: 5\nSvt[info]: Number of PPCS 93\nSvt[info]: [asm level on system : up to avx2]\nSvt[info]: [asm level selected : up to avx2]\nSvt[info]: -------------------------------------------\nSvt[info]: SVT [config]: main profile\ttier (auto)\tlevel (auto)\nSvt[info]: SVT [config]: width / height / fps numerator / fps denominator \t\t: 1920 / 1080 / 60 / 1\nSvt[info]: SVT [config]: bit-depth / color format \t\t\t\t\t: 8 / YUV420\nSvt[info]: SVT [config]: preset / tune / pred struct \t\t\t\t\t: 4 / PSNR / random access\nSvt[info]: SVT [config]: gop size / mini-gop size / key-frame type \t\t\t: 321 / 16 / key frame\nSvt[info]: SVT [config]: BRC mode / target bitrate (kbps)\t\t\t\t: VBR / 2000 \nSvt[info]: SVT [config]: AQ mode / Variance Boost \t\t\t\t\t: 2 / 0\nSvt[info]: SVT [config]: sharpness / luminance-based QP bias \t\t\t\t: 0 / 0\nSvt[info]: SVT [config]: QP scale compress strength \t\t\t\t\t: 0\nSvt[info]: -------------------------------------------\nOutput #0, matroska, to 'C:\\Users\\Peter\\Desktop\\stuff\\MIUN\\quantitative_research\\video_compression\\compressed_videos\\BVI-HD\\av1\\2\\CarpetCircleFast_1920x1080_60fps_av1.mkv':\n  Metadata:\n    major_brand     : isom\n    minor_version   : 512\n    compatible_brands: isomiso2avc1mp41\n    encoder         : Lavf62.3.100\n  Stream #0:0(und): Video: av1 (AV01 / 0x31305641), yuv420p(tv, progressive), 1920x1080, q=2-31, 2000 kb/s, 60 fps, 1k tbn (default)\n    Metadata:\n      encoder         : Lavc62.11.100 libsvtav1\n      handler_name    : VideoHandler\n      vendor_id       : [0][0][0][0]\n    Side data:\n      cpb: bitrate max/min/avg: 0/0/2000000 buffer size: 2000000 vbv_delay: N/A\nframe=    0 fps=0.0 q=0.0 size=       0KiB time=N/A bitrate=N/A speed=N/A elapsed=0:00:01.02    \nframe=    0 fps=0.0 q=0.0 size=       0KiB time=N/A bitrate=N/A speed=N/A elapsed=0:00:01.59    \nframe=    0 fps=0.0 q=0.0 size=       0KiB time=N/A bitrate=N/A speed=N/A elapsed=0:00:02.13    \nframe=    0 fps=0.0 q=0.0 size=       0KiB time=N/A bitrate=N/A speed=N/A elapsed=0:00:02.66    \nframe=    0 fps=0.0 q=0.0 size=       0KiB time=N/A bitrate=N/A speed=N/A elapsed=0:00:03.18    \nframe=    1 fps=0.3 q=19.0 size=       1KiB time=00:00:00.00 bitrate=N/A speed=   0x elapsed=0:00:03.69    \nframe=    8 fps=1.9 q=39.0 size=       1KiB time=00:00:00.11 bitrate=  48.8kbits/s speed=0.0277x elapsed=0:00:04.21    \nframe=   17 fps=3.6 q=26.0 size=       1KiB time=00:00:00.26 bitrate=  21.4kbits/s speed=0.0559x elapsed=0:00:04.76    \nframe=   23 fps=4.3 q=36.0 size=       1KiB time=00:00:00.36 bitrate=  15.5kbits/s speed=0.0693x elapsed=0:00:05.29    \nframe=   28 fps=4.8 q=32.0 size=       1KiB time=00:00:00.45 bitrate=  12.7kbits/s speed=0.0776x elapsed=0:00:05.79    \nframe=   33 fps=5.2 q=25.0 size=       1KiB time=00:00:00.53 bitrate=  10.7kbits/s speed=0.0844x elapsed=0:00:06.31    \nframe=   39 fps=5.7 q=29.0 size=       1KiB time=00:00:00.63 bitrate=   9.0kbits/s speed=0.0923x elapsed=0:00:06.85    \nframe=   41 fps=5.6 q=29.0 size=       1KiB time=00:00:00.66 bitrate=   8.5kbits/s speed=0.0905x elapsed=0:00:07.36    \nframe=   45 fps=5.7 q=29.0 size=       1KiB time=00:00:00.73 bitrate=   7.8kbits/s speed=0.0929x elapsed=0:00:07.89    \nframe=   49 fps=5.8 q=23.0 size=       1KiB time=00:00:00.80 bitrate=   7.1kbits/s speed=0.0948x elapsed=0:00:08.43    \nframe=   52 fps=5.8 q=25.0 size=       1KiB time=00:00:00.85 bitrate=   6.7kbits/s speed=0.0948x elapsed=0:00:08.96    \nframe=   56 fps=5.9 q=29.0 size=       1KiB time=00:00:00.91 bitrate=   6.2kbits/s speed=0.0967x elapsed=0:00:09.48    \nframe=   60 fps=6.0 q=32.0 size=       1KiB time=00:00:00.98 bitrate=   5.8kbits/s speed=0.0979x elapsed=0:00:10.04    \nframe=   68 fps=6.4 q=35.0 size=       1KiB time=00:00:01.11 bitrate=   5.1kbits/s speed=0.106x elapsed=0:00:10.58    \nframe=   75 fps=6.8 q=41.0 size=       1KiB time=00:00:01.21 bitrate=   4.7kbits/s speed=0.11x elapsed=0:00:11.10    \nframe=   79 fps=6.8 q=36.0 size=       1KiB time=00:00:01.30 bitrate=   4.4kbits/s speed=0.112x elapsed=0:00:11.65    \nframe=   87 fps=7.1 q=34.0 size=       1KiB time=00:00:01.43 bitrate=   4.0kbits/s speed=0.118x elapsed=0:00:12.19    \nframe=   93 fps=7.3 q=37.0 size=       1KiB time=00:00:01.51 bitrate=   3.8kbits/s speed=0.119x elapsed=0:00:12.73    \nframe=   99 fps=7.4 q=34.0 size=       1KiB time=00:00:01.63 bitrate=   3.5kbits/s speed=0.123x elapsed=0:00:13.30    \nframe=  103 fps=7.4 q=28.0 size=       1KiB time=00:00:01.70 bitrate=   3.4kbits/s speed=0.123x elapsed=0:00:13.83    \nframe=  108 fps=7.5 q=37.0 size=       1KiB time=00:00:01.78 bitrate=   3.2kbits/s speed=0.124x elapsed=0:00:14.35    \nframe=  115 fps=7.7 q=36.0 size=       1KiB time=00:00:01.90 bitrate=   3.0kbits/s speed=0.128x elapsed=0:00:14.89    \nframe=  121 fps=7.8 q=35.0 size=       1KiB time=00:00:02.00 bitrate=   2.8kbits/s speed=0.129x elapsed=0:00:15.44    \nframe=  129 fps=8.1 q=22.0 size=       1KiB time=00:00:02.13 bitrate=   2.7kbits/s speed=0.133x elapsed=0:00:15.99    \nframe=  135 fps=8.2 q=34.0 size=       1KiB time=00:00:02.23 bitrate=   2.6kbits/s speed=0.135x elapsed=0:00:16.53    \nframe=  140 fps=8.2 q=32.0 size=       1KiB time=00:00:02.31 bitrate=   2.5kbits/s speed=0.136x elapsed=0:00:17.08    \nframe=  150 fps=8.5 q=36.0 size=       1KiB time=00:00:02.48 bitrate=   2.3kbits/s speed=0.141x elapsed=0:00:17.64    \nframe=  155 fps=8.5 q=34.0 size=       1KiB time=00:00:02.56 bitrate=   2.2kbits/s speed=0.141x elapsed=0:00:18.17    \nframe=  162 fps=8.7 q=36.0 size=       1KiB time=00:00:02.68 bitrate=   2.1kbits/s speed=0.143x elapsed=0:00:18.71    \nframe=  170 fps=8.8 q=34.0 size=       1KiB time=00:00:02.81 bitrate=   2.0kbits/s speed=0.146x elapsed=0:00:19.23    \nframe=  179 fps=9.1 q=34.0 size=       1KiB time=00:00:02.95 bitrate=   1.9kbits/s speed=0.149x elapsed=0:00:19.76    \nframe=  185 fps=9.1 q=28.0 size=       1KiB time=00:00:03.06 bitrate=   1.9kbits/s speed=0.151x elapsed=0:00:20.28    \nframe=  196 fps=9.4 q=37.0 size=       1KiB time=00:00:03.25 bitrate=   1.8kbits/s speed=0.156x elapsed=0:00:20.81    \nframe=  202 fps=9.5 q=37.0 size=       1KiB time=00:00:03.35 bitrate=   1.7kbits/s speed=0.157x elapsed=0:00:21.33    \nframe=  209 fps=9.6 q=22.0 size=       1KiB time=00:00:03.46 bitrate=   1.6kbits/s speed=0.158x elapsed=0:00:21.87    \nframe=  221 fps=9.8 q=35.0 size=       1KiB time=00:00:03.66 bitrate=   1.6kbits/s speed=0.163x elapsed=0:00:22.43    \nframe=  233 fps= 10 q=34.0 size=       1KiB time=00:00:03.86 bitrate=   1.5kbits/s speed=0.168x elapsed=0:00:22.96    \nframe=  241 fps= 10 q=19.0 size=       1KiB time=00:00:04.00 bitrate=   1.4kbits/s speed=0.17x elapsed=0:00:23.48    \nframe=  253 fps= 11 q=37.0 size=       1KiB time=00:00:04.20 bitrate=   1.4kbits/s speed=0.175x elapsed=0:00:24.00    \nframe=  263 fps= 11 q=37.0 size=       1KiB time=00:00:04.36 bitrate=   1.3kbits/s speed=0.178x elapsed=0:00:24.52    \nframe=  273 fps= 11 q=16.0 size=       1KiB time=00:00:04.53 bitrate=   1.3kbits/s speed=0.181x elapsed=0:00:25.03    \nframe=  285 fps= 11 q=37.0 size=       1KiB time=00:00:04.73 bitrate=   1.2kbits/s speed=0.185x elapsed=0:00:25.56    \n[out#0/matroska @ 000001a2ef92cd80] video:1090KiB audio:0KiB subtitle:0KiB other streams:0KiB global headers:0KiB muxing overhead: 0.189792%\nframe=  300 fps= 12 q=41.0 Lsize=    1092KiB time=00:00:04.98 bitrate=1795.8kbits/s speed=0.194x elapsed=0:00:25.69    \n",
  "seconds": 26.105336666107178,
  "probe_out": {}
}